<svg width="19" height="17" viewBox="0 0 19 17" fill="none" xmlns="http://www.w3.org/2000/svg">
<path d="M9.892 0.194924C9.53081 -0.0649746 9.04062 -0.0649746 8.67943 0.194924L3.00361 4.30196C2.64243 4.56507 2.49085 5.02711 2.62953 5.45065C2.7682 5.87419 3.16163 6.15975 3.60989 6.15975H4.12588V8.50205C4.1807 8.53413 4.2323 8.56622 4.2839 8.60151C4.86438 8.99938 5.57708 9.25286 6.19304 9.25286C6.87349 9.25286 7.54749 8.98013 8.10218 8.60151C8.81488 8.10418 9.76622 8.10418 10.4789 8.60151C11.0723 9.00901 11.756 9.25286 12.3881 9.25286C13.0008 9.25286 13.7167 8.99938 14.2972 8.60151C14.3456 8.56943 14.394 8.53734 14.4423 8.50846L14.4327 6.15975H14.968C15.4162 6.15975 15.8097 5.87419 15.9484 5.45065C16.087 5.02711 15.9355 4.56507 15.5743 4.30196L9.89845 0.194924H9.892ZM8.68911 9.94272C7.96351 10.4401 7.07666 10.7802 6.18981 10.7802C5.32232 10.7802 4.40644 10.4336 3.69374 9.94272C3.30998 9.66999 2.78755 9.69245 2.42958 9.99727C1.9652 10.3791 1.38149 10.6711 0.797783 10.8058C0.243101 10.9342 -0.101963 11.4861 0.0270328 12.0379C0.156029 12.5898 0.710711 12.9332 1.26539 12.8048C2.05549 12.6219 2.71337 12.2754 3.14228 12.0027C4.07751 12.5032 5.1256 12.8337 6.18981 12.8337C7.21856 12.8337 8.1441 12.516 8.78263 12.2273C8.96968 12.1406 9.1406 12.0572 9.28572 11.9802C9.43084 12.0572 9.59853 12.1438 9.7888 12.2273C10.4273 12.516 11.3529 12.8337 12.3816 12.8337C13.4458 12.8337 14.4939 12.5032 15.4291 12.0059C15.8613 12.2754 16.5159 12.6251 17.306 12.808C17.8607 12.9364 18.4154 12.593 18.5444 12.0412C18.6734 11.4893 18.3283 10.9374 17.7736 10.809C17.1899 10.6743 16.6062 10.3823 16.1418 10.0005C15.7839 9.69565 15.2615 9.6764 14.8777 9.94593C14.1682 10.4336 13.2491 10.7802 12.3816 10.7802C11.4948 10.7802 10.6079 10.4401 9.88232 9.94272C9.52436 9.68924 9.04707 9.68924 8.68911 9.94272ZM12.3816 14.3738C11.4948 14.3738 10.6079 14.0337 9.88232 13.5364C9.52436 13.2829 9.04707 13.2829 8.68911 13.5364C7.96351 14.0337 7.07666 14.3738 6.18981 14.3738C5.32232 14.3738 4.40644 14.0273 3.69374 13.5364C3.30998 13.2636 2.78755 13.2861 2.42958 13.5909C1.9652 13.9727 1.38149 14.2647 0.797783 14.3995C0.243101 14.5278 -0.101963 15.0797 0.0270328 15.6316C0.156029 16.1835 0.710711 16.5268 1.26539 16.3985C2.05549 16.2156 2.71337 15.869 3.14228 15.5963C4.07751 16.0969 5.1256 16.4273 6.18981 16.4273C7.21856 16.4273 8.1441 16.1097 8.78263 15.8209C8.96968 15.7343 9.1406 15.6509 9.28572 15.5739C9.43084 15.6509 9.59853 15.7375 9.7888 15.8209C10.4273 16.1097 11.3529 16.4273 12.3816 16.4273C13.4458 16.4273 14.4939 16.0969 15.4291 15.5995C15.8613 15.869 16.5159 16.2188 17.306 16.4017C17.8607 16.53 18.4154 16.1867 18.5444 15.6348C18.6734 15.0829 18.3283 14.531 17.7736 14.4027C17.1899 14.2679 16.6062 13.976 16.1418 13.5941C15.7839 13.2925 15.2615 13.2701 14.8777 13.5396C14.1682 14.0273 13.2491 14.3738 12.3816 14.3738Z" fill="#C4D2E6"/>
</svg>
