<svg width="20" height="24" viewBox="0 0 20 24" fill="none" xmlns="http://www.w3.org/2000/svg">
<path d="M4.07166 21.207L5.07166 20.7341L7.07166 21.207L8.07166 23.0984H3.57166L4.07166 21.207Z" fill="#C2D0E5"/>
<path d="M14.3557 19.5611L12.7513 15.0177L13.8379 15.4042C14.1575 15.518 14.5082 15.4232 14.7526 15.1563C14.9966 14.8902 15.0776 14.5142 14.963 14.1754L13.4266 9.63855L14.4514 10.0032C14.7743 10.118 15.1379 10.0125 15.3764 9.73475C15.6118 9.46157 15.6814 9.07105 15.5532 8.74052L13.238 2.7593C13.1117 2.43122 12.7126 2.28923 12.4107 2.46498L6.90202 5.66266C6.59743 5.83921 6.41034 6.18795 6.42437 6.54986C6.43841 6.91748 6.65695 7.2301 6.97977 7.34495L8.00463 7.70957L3.99719 10.2749C3.69894 10.4664 3.52943 10.8105 3.55448 11.1728C3.57989 11.5352 3.79432 11.831 4.1143 11.9449L5.20089 12.3314L1.13707 14.8583C0.831948 15.0478 0.657316 15.3939 0.681091 15.7611C0.704723 16.1229 0.926722 16.4302 1.24635 16.5439L6.10142 18.2712L5.76914 19.2263L5.70045 19.4238L6.30441 19.7185L6.50506 19.5853L7.4004 20.0286L7.97083 20.2315L8.3718 19.0789L13.2269 20.8062C13.5465 20.9199 13.9098 20.8209 14.1523 20.5537C14.3981 20.2825 14.4762 19.902 14.3557 19.5611Z" fill="#C2D0E5"/>
</svg>
