<svg width="21" height="21" viewBox="0 0 21 21" fill="none" xmlns="http://www.w3.org/2000/svg">
<path d="M6.84506 11.7428C6.39062 12.4325 5.55206 12.8571 4.64308 12.8572C3.73411 12.8572 2.8955 12.4327 2.44097 11.743L0.78048 9.21455C0.592241 8.92929 0.82788 8.57169 1.20432 8.57167L8.08132 8.57125C8.45777 8.57123 8.69345 8.92746 8.50525 9.21408L6.84506 11.7428Z" fill="#C2D0E5"/>
<path d="M6.84506 6.02864C6.39062 6.7184 5.55206 7.14301 4.64308 7.14306C3.73411 7.14312 2.8955 6.71861 2.44097 6.02891L0.78048 3.50044C0.592241 3.21518 0.82788 2.85758 1.20432 2.85755L8.08132 2.85714C8.45777 2.85712 8.69345 3.21335 8.50525 3.49997L6.84506 6.02864Z" fill="#C2D0E5"/>
<path d="M17.5593 6.02864C17.1049 6.7184 16.2663 7.14301 15.3573 7.14306C14.4483 7.14312 13.6097 6.71861 13.1552 6.02891L11.4947 3.50044C11.3065 3.21518 11.5421 2.85758 11.9186 2.85755L18.7956 2.85714C19.172 2.85712 19.4077 3.21335 19.2195 3.49997L17.5593 6.02864Z" fill="#C2D0E5"/>
<rect x="14.9999" y="12.8569" width="0.714286" height="2.85714" fill="#C2D0E5"/>
<path d="M6.57136 1.42847C5.31064 1.42847 4.28564 2.46948 4.28564 3.7499V14.1963C4.28564 17.4028 6.84279 19.9999 9.99993 19.9999C13.1571 19.9999 15.7142 17.4028 15.7142 14.1963V3.7499C15.7142 2.46948 14.6892 1.42847 13.4285 1.42847H6.57136ZM9.99993 16.5178C9.54527 16.5178 9.10924 16.3343 8.78775 16.0078C8.46626 15.6813 8.28564 15.2384 8.28564 14.7767C8.28564 14.3149 8.46626 13.8721 8.78775 13.5456C9.10924 13.219 9.54527 13.0356 9.99993 13.0356C10.4546 13.0356 10.8906 13.219 11.2121 13.5456C11.5336 13.8721 11.7142 14.3149 11.7142 14.7767C11.7142 15.2384 11.5336 15.6813 11.2121 16.0078C10.8906 16.3343 10.4546 16.5178 9.99993 16.5178ZM11.7142 10.1338C11.7142 10.5956 11.5336 11.0384 11.2121 11.3649C10.8906 11.6915 10.4546 11.8749 9.99993 11.8749C9.54527 11.8749 9.10924 11.6915 8.78775 11.3649C8.46626 11.0384 8.28564 10.5956 8.28564 10.1338C8.28564 9.67206 8.46626 9.22921 8.78775 8.9027C9.10924 8.57619 9.54527 8.39275 9.99993 8.39275C10.4546 8.39275 10.8906 8.57619 11.2121 8.9027C11.5336 9.22921 11.7142 9.67206 11.7142 10.1338ZM9.99993 7.23204C9.77481 7.23204 9.55189 7.187 9.3439 7.09951C9.13591 7.01201 8.94693 6.88376 8.78775 6.72209C8.62856 6.56042 8.50229 6.36848 8.41614 6.15725C8.32999 5.94601 8.28564 5.71961 8.28564 5.49097C8.28564 5.26233 8.32999 5.03592 8.41614 4.82469C8.50229 4.61345 8.62856 4.42152 8.78775 4.25984C8.94693 4.09817 9.13591 3.96992 9.3439 3.88243C9.55189 3.79493 9.77481 3.7499 9.99993 3.7499C10.2251 3.7499 10.448 3.79493 10.656 3.88243C10.8639 3.96992 11.0529 4.09817 11.2121 4.25984C11.3713 4.42152 11.4976 4.61345 11.5837 4.82469C11.6699 5.03592 11.7142 5.26233 11.7142 5.49097C11.7142 5.71961 11.6699 5.94601 11.5837 6.15725C11.4976 6.36848 11.3713 6.56042 11.2121 6.72209C11.0529 6.88376 10.8639 7.01201 10.656 7.09951C10.448 7.187 10.2251 7.23204 9.99993 7.23204Z" fill="#C2D0E5"/>
<path d="M16.8451 11.7428C16.3906 12.4325 15.5521 12.8571 14.6431 12.8572C13.7341 12.8572 12.8955 12.4327 12.441 11.743L10.7805 9.21455C10.5922 8.92929 10.8279 8.57169 11.2043 8.57167L18.0813 8.57125C18.4578 8.57123 18.6935 8.92746 18.5052 9.21408L16.8451 11.7428Z" fill="#C2D0E5"/>
<path d="M2.06674 15.8455C1.32771 16.5845 1.32771 17.7827 2.06674 18.5217C2.80578 19.2608 4.00398 19.2608 4.74302 18.5217L18.5219 4.74289C19.2609 4.00385 19.2609 2.80565 18.5219 2.06661C17.7828 1.32758 16.5846 1.32758 15.8456 2.06661L2.06674 15.8455Z" fill="#C2D0E5" stroke="#EEF5FF" stroke-width="2"/>
</svg>
