<svg width="20" height="17" viewBox="0 0 20 17" fill="none" xmlns="http://www.w3.org/2000/svg">
<path d="M16.4537 10.3724C16.4428 10.444 16.4382 10.5198 16.4382 10.5972V15.3796C16.4382 15.457 16.4437 15.5328 16.4546 15.6052C16.5276 16.0639 16.8457 16.2878 17.4255 16.2878H19.123V9.68896H17.4255C16.8457 9.68896 16.5276 9.91211 16.4546 10.3716L16.4537 10.3724Z" fill="#C2D0E5"/>
<path d="M15.0725 6.30951C15.2822 6.26834 15.4435 6.24858 15.5958 6.24858C15.7207 6.24858 15.8383 6.26175 15.9714 6.28645C16.0133 6.29386 16.0635 6.30621 16.12 6.31857C16.3716 6.37703 16.7517 6.46596 17.0079 6.32515C17.1784 6.23211 17.2741 6.0946 17.2778 5.93897C17.2814 5.78252 17.1921 5.63101 17.0453 5.54291C16.6797 5.32306 16.2039 5.40951 15.8793 5.56267C15.5256 5.73065 15.2658 6.03202 15.0725 6.30869V6.30951Z" fill="#C2D0E5"/>
<path d="M3.69897 15.5476H16.2924C16.2869 15.4924 16.2832 15.4364 16.2832 15.3796V10.5972C16.2832 10.5404 16.2869 10.4844 16.2924 10.4292H10.044L9.6848 11.12L10.663 11.377C10.6867 11.3835 10.7058 11.4 10.714 11.4214C10.7222 11.4428 10.7186 11.4667 10.704 11.4848L10.2892 12.0019L11.2182 12.3585C11.2492 12.37 11.2683 12.3996 11.2647 12.4293L11.127 13.6628C11.1234 13.699 11.0896 13.7253 11.0504 13.7253C11.0477 13.7253 11.045 13.7253 11.0422 13.7253C11.0003 13.7212 10.9693 13.6875 10.9729 13.6488L11.1051 12.4663L10.1953 12.1172L9.31103 13.2189C9.29553 13.2379 9.27274 13.2478 9.24904 13.2478C9.23354 13.2478 9.21713 13.2436 9.20345 13.2346C9.16881 13.2123 9.16152 13.1687 9.18613 13.1374L10.5144 11.4832L9.55535 11.2312C9.53347 11.2254 9.51615 11.2114 9.50703 11.1933C9.49791 11.1752 9.49791 11.1538 9.50703 11.1349L9.87351 10.4292H3.69897C3.70444 10.4844 3.70809 10.5404 3.70809 10.5972V15.3796C3.70809 15.4372 3.70444 15.4924 3.69897 15.5476Z" fill="#C2D0E5"/>
<path d="M6.50587 7.92361C7.34458 8.02736 7.85145 8.08994 8.54794 8.40531C9.54983 8.85901 9.8452 9.83312 9.92999 10.2893H9.95187C10.1789 9.84958 10.5599 9.27649 11.1124 8.96112C11.5117 8.73303 12.0213 8.68774 12.3932 8.65481C12.4543 8.64904 12.5117 8.6441 12.5637 8.63834C13.0569 8.58564 13.4143 8.42343 13.572 8.18052C13.716 7.96067 13.7361 7.50779 13.3942 7.26488C13.0596 7.02691 12.5965 7.10678 12.2674 7.21465C11.7733 7.37604 10.8024 8.00101 10.3448 8.65316C10.3238 8.68198 10.2828 8.69351 10.2481 8.67951C10.2135 8.66551 10.1953 8.6301 10.2062 8.59634C10.4834 7.74987 10.9291 7.15701 11.6958 6.61438C12.1808 6.27019 12.5901 6.09151 13.0642 5.88483C13.1955 5.82719 13.3331 5.76709 13.4799 5.70039C13.8783 5.51924 14.3378 5.19646 14.4444 4.93132C14.6477 4.42656 14.3615 4.06014 14.0105 3.93416C13.6349 3.79912 13.0916 3.9004 12.6275 4.19271C12.4935 4.27752 11.2956 5.06471 10.4788 6.69672C10.4624 6.72884 10.4232 6.74448 10.3858 6.7346C10.3484 6.7239 10.3256 6.69014 10.3329 6.65555C10.5134 5.75391 10.9264 4.79298 11.4369 4.0832C11.9228 3.40882 12.4215 2.92877 12.7843 2.57799C12.8801 2.48577 12.9657 2.40343 13.0378 2.33014C13.4626 1.89703 13.6185 1.56272 13.5574 1.21277C13.4845 0.797767 13.1308 0.549095 12.6366 0.560623C12.086 0.575444 11.6767 0.874345 11.2245 1.59236C10.8954 2.11276 10.6183 2.73938 10.2536 4.25612C10.2454 4.29152 10.2089 4.31458 10.1688 4.31046C10.1296 4.30634 10.0996 4.27505 10.1014 4.23965C10.1697 1.90609 9.67017 1.0802 9.28819 0.662727C8.9837 0.32842 8.70474 0.172794 8.3565 0.141504C7.89247 0.10198 7.47768 0.297953 7.29991 0.639671C7.17228 0.885872 7.1659 1.30499 7.53329 1.74305C7.59072 1.81222 7.66183 1.88962 7.74479 1.97937C8.01099 2.26839 8.37473 2.66445 8.79135 3.30342C9.33833 4.14248 9.49878 5.07871 9.5708 6.22573C9.57262 6.26113 9.54527 6.29242 9.50607 6.29819C9.46778 6.30395 9.4295 6.28254 9.41947 6.24796C9.00832 4.90744 8.04927 3.73654 7.28167 3.17003C6.90061 2.88924 6.5788 2.72621 6.15215 2.77973C5.7802 2.82666 5.36541 3.04816 5.31891 3.52822C5.26877 4.05438 5.67628 4.36563 5.98715 4.55419C6.1166 4.63324 6.27705 4.71641 6.46211 4.81275C6.84409 5.01201 7.31996 5.25986 7.81498 5.61805C8.75944 6.30066 9.2417 6.98574 9.53433 8.06277C9.54345 8.09488 9.52522 8.12864 9.49149 8.14264C9.45776 8.15664 9.41764 8.14676 9.39668 8.11959C8.66645 7.19242 7.43392 6.4357 6.58974 6.39865C6.56512 6.39782 6.54051 6.397 6.51681 6.397C6.02179 6.397 5.66716 6.62756 5.60426 6.99727C5.5687 7.20312 5.62249 7.40486 5.75377 7.56378C5.91148 7.75564 6.1713 7.87915 6.50404 7.92032L6.50587 7.92361Z" fill="#C2D0E5"/>
<path d="M3.55398 15.3795V10.5971C3.55398 10.5197 3.54851 10.4439 3.53848 10.3723C3.46464 9.91284 3.14647 9.6897 2.56576 9.6897H0.868286V16.2877H2.56576C3.14647 16.2877 3.46464 16.0646 3.53848 15.6043C3.54851 15.5335 3.55398 15.4569 3.55398 15.3795Z" fill="#C2D0E5"/>
<path d="M1.63317 4.76729C1.86108 4.94514 2.25218 4.91468 2.51017 4.89492C2.5676 4.8908 2.61957 4.88668 2.66241 4.88504C2.69068 4.88421 2.71711 4.88339 2.74355 4.88339C3.00793 4.88339 3.2176 4.92456 3.54488 5.04395C3.40449 4.74094 3.20393 4.40416 2.88668 4.18595C2.59587 3.98504 2.14278 3.82859 1.74166 3.98998C1.5803 4.05503 1.46452 4.19172 1.43899 4.34652C1.41438 4.5005 1.48275 4.64954 1.63317 4.76646V4.76729Z" fill="#C2D0E5"/>
<path d="M19.1986 9.54975H17.4246C16.791 9.54975 16.4181 9.79925 16.3133 10.2892H10.1224C10.3439 9.87582 10.6976 9.36284 11.1954 9.07876C11.5637 8.86796 12.0523 8.82432 12.4097 8.79303C12.4716 8.78727 12.53 8.78233 12.5838 8.77656C13.1335 8.7181 13.5219 8.53613 13.7069 8.25122C13.9102 7.9408 13.8728 7.42616 13.4918 7.15608C13.1827 6.93705 12.7424 6.91152 12.2173 7.08444C11.8016 7.22031 11.0458 7.67071 10.5171 8.21993C10.859 7.46239 11.3467 7.03998 11.7934 6.72379C12.2656 6.38866 12.6485 6.2215 13.1335 6.00988C13.2657 5.95224 13.4043 5.89214 13.5519 5.82462C13.964 5.63688 14.4654 5.29186 14.5921 4.97897C14.8301 4.38693 14.4891 3.95546 14.0707 3.80477C13.6486 3.65244 13.0487 3.76031 12.5428 4.07897C12.0104 4.41493 11.2346 5.13048 10.6256 6.12846C10.8362 5.41785 11.1726 4.71136 11.5691 4.16049C12.0477 3.49682 12.5409 3.02171 12.9001 2.67505C12.9968 2.582 13.0834 2.49801 13.1563 2.42391C13.6148 1.9562 13.7817 1.58814 13.7124 1.19207C13.6276 0.710376 13.2028 0.407359 12.6348 0.423003C12.0304 0.439472 11.5691 0.769662 11.0933 1.52556C10.8061 1.97926 10.5581 2.51036 10.2627 3.60963C10.2308 1.70753 9.76955 0.970575 9.41036 0.576159C9.08217 0.215503 8.76219 0.0392915 8.37474 0.00553138C7.84599 -0.0389331 7.37011 0.187506 7.16408 0.582746C7.01731 0.866002 7.00546 1.34194 7.41387 1.8294C7.47313 1.90021 7.54515 1.97926 7.62993 2.07066C7.89248 2.35639 8.25167 2.74751 8.66191 3.37577C9.10223 4.05098 9.28456 4.79699 9.37481 5.67475C8.89255 4.53432 8.06478 3.56763 7.38288 3.06535C6.9699 2.76068 6.6171 2.58365 6.13484 2.64458C5.72369 2.69646 5.22411 2.95666 5.16942 3.51905C5.1056 4.18849 5.70728 4.55244 5.90511 4.67266C6.03912 4.75417 6.20139 4.83899 6.38919 4.93615C6.76661 5.13295 7.23701 5.3775 7.72292 5.72992C8.53519 6.31702 8.99466 6.90658 9.28638 7.76211C8.5206 6.93623 7.39929 6.2989 6.6016 6.2635C5.99536 6.23715 5.53407 6.52452 5.45658 6.97987C5.41465 7.22278 5.47846 7.46074 5.63435 7.65095C5.81759 7.87328 6.11205 8.01573 6.48674 8.06266C7.30995 8.16476 7.80679 8.2257 8.48049 8.53119C9.40307 8.94866 9.68933 9.84783 9.77502 10.2908H3.67797C3.57314 9.80007 3.20027 9.5514 2.56577 9.5514H0.790811C0.747964 9.5514 0.714233 9.58269 0.714233 9.62139V16.3586C0.714233 16.3973 0.748876 16.4286 0.790811 16.4286H2.56577C3.20027 16.4286 3.57314 16.1799 3.67797 15.6891H16.3133C16.4181 16.1799 16.791 16.4286 17.4246 16.4286H19.1986C19.2415 16.4286 19.2752 16.3973 19.2752 16.3586V9.61974C19.2752 9.58104 19.2406 9.54975 19.1986 9.54975ZM19.1221 16.2869H17.4246C16.8448 16.2869 16.5266 16.0638 16.4537 15.6043C16.4428 15.5327 16.4373 15.4569 16.4373 15.3787V10.5963C16.4373 10.5189 16.4428 10.4432 16.4528 10.3715C16.5266 9.91205 16.8439 9.68891 17.4237 9.68891H19.1211V16.2869H19.1221ZM2.56577 16.2869H0.8683V9.68891H2.56577C3.14649 9.68891 3.46465 9.91205 3.53849 10.3715C3.54943 10.4432 3.55399 10.5189 3.55399 10.5963V15.3787C3.55399 15.4561 3.54852 15.5319 3.53849 15.6035C3.46465 16.063 3.14649 16.2869 2.56577 16.2869ZM3.69894 10.4283H9.87348L9.507 11.134C9.49788 11.1521 9.49697 11.1735 9.507 11.1925C9.51702 11.2114 9.53435 11.2246 9.55532 11.2303L10.5144 11.4823L9.1861 13.1366C9.16149 13.1678 9.16878 13.2115 9.20342 13.2337C9.2171 13.2428 9.23259 13.2469 9.249 13.2469C9.27271 13.2469 9.29641 13.237 9.311 13.2181L10.1953 12.1163L11.1051 12.4655L10.9729 13.6479C10.9684 13.6858 10.9994 13.7204 11.0422 13.7245C11.0449 13.7245 11.0477 13.7245 11.0504 13.7245C11.0896 13.7245 11.1233 13.6973 11.127 13.6619L11.2646 12.4284C11.2683 12.3979 11.2491 12.3691 11.2181 12.3576L10.2892 12.0011L10.704 11.484C10.7186 11.4658 10.7222 11.442 10.714 11.4206C10.7058 11.3991 10.6867 11.3827 10.663 11.3761L9.68477 11.1192L10.044 10.4283H16.2923C16.2869 10.4835 16.2832 10.5395 16.2832 10.5963V15.3787C16.2832 15.4355 16.2869 15.4915 16.2923 15.5467H3.69894C3.70441 15.4915 3.70806 15.4355 3.70806 15.3787V10.5963C3.70806 10.5395 3.70441 10.4835 3.69894 10.4283ZM5.607 6.99963C5.66991 6.63074 6.02453 6.39936 6.51955 6.39936C6.54326 6.39936 6.56787 6.39936 6.59249 6.40101C7.43575 6.43888 8.6692 7.19478 9.39942 8.12195C9.42039 8.14912 9.4605 8.159 9.49423 8.145C9.52797 8.131 9.5462 8.09724 9.53708 8.06513C9.24444 6.9881 8.76219 6.3022 7.81773 5.62041C7.32271 5.2614 6.84683 5.01437 6.46486 4.81511C6.27979 4.71877 6.11934 4.63478 5.98989 4.55655C5.67902 4.36799 5.27243 4.05756 5.32166 3.53058C5.36907 3.05053 5.78295 2.82903 6.1549 2.78209C6.58155 2.72857 6.90335 2.89161 7.28442 3.17239C8.05202 3.73808 9.01015 4.90898 9.42221 6.25032C9.43315 6.28491 9.47053 6.30631 9.50882 6.30055C9.54802 6.29479 9.57537 6.2635 9.57355 6.22809C9.50153 5.08107 9.34108 4.14485 8.7941 3.30578C8.37748 2.66764 8.01373 2.27157 7.74753 1.98173C7.66549 1.89198 7.59347 1.81458 7.53603 1.74541C7.16864 1.30735 7.17502 0.888234 7.30265 0.642032C7.48042 0.300314 7.89613 0.104341 8.35924 0.143865C8.70749 0.174332 8.98645 0.329957 9.29094 0.665088C9.67292 1.08338 10.1725 1.90927 10.1041 4.24201C10.1032 4.27824 10.1324 4.30871 10.1716 4.31282C10.2117 4.31694 10.2472 4.29388 10.2564 4.25848C10.6201 2.74174 10.8972 2.11512 11.2273 1.59473C11.6794 0.876706 12.0878 0.577806 12.6394 0.562984C13.1335 0.551457 13.4872 0.800128 13.5601 1.21513C13.6212 1.56508 13.4653 1.89939 13.0405 2.33251C12.9685 2.40579 12.8828 2.48813 12.7871 2.58035C12.4233 2.93113 11.9256 3.41118 11.4397 4.08556C10.9292 4.79452 10.5162 5.75627 10.3357 6.65791C10.3284 6.6925 10.3512 6.72626 10.3886 6.73696C10.4259 6.74684 10.466 6.7312 10.4815 6.69908C11.2984 5.06707 12.4963 4.27906 12.6303 4.19507C13.0943 3.90276 13.6376 3.80066 14.0132 3.93652C14.3642 4.0625 14.6496 4.4281 14.4472 4.93368C14.3396 5.19882 13.8801 5.52077 13.4827 5.70275C13.3359 5.76945 13.1982 5.82956 13.067 5.8872C12.5929 6.09387 12.1836 6.27255 11.6986 6.61674C10.931 7.15937 10.4861 7.75223 10.209 8.59871C10.198 8.63164 10.2163 8.66787 10.2509 8.68187C10.2855 8.69587 10.3275 8.68516 10.3475 8.65552C10.8052 8.00338 11.7761 7.3784 12.2702 7.21701C12.5993 7.10915 13.0624 7.0301 13.397 7.26724C13.7388 7.51015 13.7197 7.9622 13.5747 8.18288C13.4179 8.42496 13.0597 8.588 12.5665 8.6407C12.5145 8.64646 12.4571 8.6514 12.396 8.65717C12.024 8.6901 11.5144 8.73539 11.1151 8.96348C10.5627 9.27967 10.1816 9.85194 9.95461 10.2916H9.93273C9.84795 9.83465 9.55258 8.86137 8.55069 8.40767C7.8542 8.09148 7.34732 8.0289 6.50862 7.92597C6.17587 7.88398 5.91696 7.76047 5.75834 7.56943C5.62706 7.40969 5.57418 7.20878 5.60883 7.00292L5.607 6.99963Z" fill="#C2D0E5"/>
<path d="M1.53286 4.87279C1.81 5.08852 2.23938 5.05559 2.52381 5.03418C2.57851 5.03006 2.62774 5.02594 2.66785 5.02512C2.99422 5.01524 3.20663 5.06135 3.65516 5.23756C3.66518 5.24168 3.67521 5.24333 3.68615 5.24333C3.7053 5.24333 3.72444 5.23674 3.73903 5.22439C3.76182 5.20463 3.76911 5.17581 3.75817 5.14946C3.60866 4.79621 3.3844 4.35486 2.98146 4.07737C2.656 3.85258 2.14275 3.67801 1.68055 3.86493C1.47178 3.94892 1.32136 4.12677 1.28854 4.32851C1.25572 4.53107 1.34233 4.72457 1.53377 4.87361L1.53286 4.87279ZM1.43987 4.34745C1.4654 4.19265 1.58118 4.05596 1.74254 3.99091C2.14366 3.82952 2.59674 3.98597 2.88756 4.18688C3.20481 4.40509 3.40537 4.74187 3.54576 5.04488C3.21848 4.92549 3.00789 4.88432 2.74443 4.88432C2.71799 4.88432 2.69064 4.88432 2.66329 4.88596C2.62045 4.88761 2.56939 4.8909 2.51105 4.89584C2.25214 4.91561 1.86196 4.94607 1.63405 4.76822C1.48363 4.65129 1.41526 4.50225 1.43987 4.34827V4.34745Z" fill="#C2D0E5"/>
<path d="M14.9294 6.48241C15.4062 6.37619 15.6231 6.36384 15.9413 6.42313C15.9814 6.43054 16.0288 6.44124 16.0826 6.45442C16.244 6.49229 16.4536 6.54088 16.6624 6.54088C16.811 6.54088 16.9587 6.51617 17.0881 6.44454C17.3051 6.32596 17.4273 6.14728 17.4318 5.94225C17.4364 5.73887 17.3215 5.54125 17.131 5.42762C16.7098 5.174 16.171 5.26787 15.8082 5.43997C15.3588 5.65406 15.057 6.05424 14.8446 6.37949C14.8291 6.40336 14.8309 6.43383 14.8491 6.45606C14.8674 6.4783 14.8993 6.489 14.9294 6.48241ZM17.0453 5.54372C17.1921 5.63182 17.2814 5.78333 17.2778 5.93978C17.2741 6.09541 17.1784 6.23209 17.0079 6.32596C16.7517 6.46677 16.3716 6.37866 16.12 6.31938C16.0635 6.3062 16.0133 6.29467 15.9714 6.28726C15.8383 6.26256 15.7198 6.24939 15.5958 6.24939C15.4435 6.24939 15.2822 6.26915 15.0725 6.31032C15.2667 6.03365 15.5256 5.73228 15.8793 5.5643C16.2038 5.41115 16.6797 5.32469 17.0453 5.54454V5.54372Z" fill="#C2D0E5"/>
</svg>
