<svg width="308" height="308" viewBox="0 0 308 308" fill="none" xmlns="http://www.w3.org/2000/svg">
<g clip-path="url(#clip0_478_175)">
<rect width="308" height="308" fill="#0D74FF"/>
<mask id="mask0_478_175" style="mask-type:alpha" maskUnits="userSpaceOnUse" x="37" y="90" width="234" height="234">
<rect x="37.5336" y="90.6973" width="233.303" height="233.303" fill="#D9D9D9"/>
</mask>
<g mask="url(#mask0_478_175)">
<path d="M154.185 275.395C131.341 258.546 114.289 242.182 103.028 226.304C91.7683 210.427 86.1383 194.873 86.1383 179.644C86.1383 159.392 97.7898 148.665 113.045 139.513C125.682 126.47 134.095 141.038 154.185 141.038C174.275 141.038 189.648 128.758 202.285 141.801C214.922 154.843 222.232 159.392 222.232 179.644C222.232 194.873 216.601 210.427 205.341 226.304C194.081 242.182 177.029 258.546 154.185 275.395ZM154.185 197.628C159.531 197.628 164.108 195.724 167.916 191.917C171.723 188.109 173.627 183.532 173.627 178.186C173.627 172.839 171.723 168.262 167.916 164.455C164.108 160.648 159.531 158.744 154.185 158.744C148.838 158.744 144.261 160.648 140.454 164.455C136.647 168.262 134.743 172.839 134.743 178.186C134.743 183.532 136.647 188.109 140.454 191.917C144.261 195.724 148.838 197.628 154.185 197.628Z" fill="white"/>
</g>
<mask id="mask1_478_175" style="mask-type:alpha" maskUnits="userSpaceOnUse" x="63" y="19" width="184" height="184">
<path d="M63.4667 19H246.524V202.057H63.4667V19Z" fill="#D9D9D9"/>
</mask>
<g mask="url(#mask1_478_175)">
<path d="M86.3488 179.175V72.3916H116.519V41.8821H191.946V102.901H222.116V179.175L176.86 169.479L161.775 148.665H146.69L136.59 167.928L86.3488 179.175ZM101.434 163.92H116.519V148.665H101.434V163.92ZM101.434 133.411H116.519V118.156H101.434V133.411ZM101.434 102.901H116.519V87.6464H101.434V102.901ZM131.605 133.411H146.69V118.156H131.605V133.411ZM131.605 102.901H146.69V87.6464H131.605V102.901ZM131.605 72.3916H146.69V57.1369H131.605V72.3916ZM161.775 133.411H176.86V118.156H161.775V133.411ZM161.775 102.901H176.86V87.6464H161.775V102.901ZM161.775 72.3916H176.86V57.1369H161.775V72.3916ZM191.946 163.92H207.031V148.665H191.946V163.92ZM191.946 133.411H207.031V118.156H191.946V133.411Z" fill="white"/>
</g>
</g>
<defs>
<clipPath id="clip0_478_175">
<rect width="308" height="308" fill="white"/>
</clipPath>
</defs>
</svg>
